<?xml version="1.0" standalone="no"?><!DOCTYPE svg PUBLIC "-//W3C//DTD SVG 1.1//EN" "http://www.w3.org/Graphics/SVG/1.1/DTD/svg11.dtd"><svg t="1590477243261" class="icon" viewBox="0 0 1820 1024" version="1.1" xmlns="http://www.w3.org/2000/svg" p-id="5386" xmlns:xlink="http://www.w3.org/1999/xlink" width="355.46875" height="200"><defs><style type="text/css"></style></defs><path d="M773.878519 735.762963c-19.816296 0-35.84 16.023704-35.84 35.84 0 9.197037 3.602963 17.540741 9.291851 23.893333-0.094815 1.042963-0.284444 1.991111-0.284444 3.034074 0 14.885926 12.041481 26.832593 26.832593 26.832593 14.885926 0 26.832593-12.041481 26.832592-26.832593 0-1.042963-0.18963-1.991111-0.284444-3.034074 5.688889-6.352593 9.291852-14.601481 9.291852-23.893333 0-19.721481-16.118519-35.84-35.84-35.84m8.912592 51.294815v11.472592c0 4.93037-3.982222 8.912593-8.912592 8.912593s-8.912593-3.982222-8.912593-8.912593v-11.472592c-5.30963-3.128889-8.912593-8.817778-8.912593-15.454815 0-9.860741 8.059259-17.92 17.92-17.92 9.860741 0 17.92 8.059259 17.92 17.92-0.094815 6.637037-3.792593 12.325926-9.102222 15.454815m98.607408-122.974815v-53.76c0-59.354074-48.165926-107.52-107.52-107.52-59.354074 0-107.52 48.165926-107.52 107.52v53.76c-19.816296 0-35.84 16.023704-35.84 35.84v161.28c0 19.816296 16.023704 35.84 35.84 35.84h215.04c19.816296 0 35.84-16.023704 35.84-35.84V699.922963c0-19.721481-16.118519-35.84-35.84-35.84m-197.12-53.76c0-49.493333 40.106667-89.6 89.6-89.6s89.6 40.106667 89.6 89.6v53.76h-179.2v-53.76z m215.04 250.88c0 9.860741-8.059259 17.92-17.92 17.92H666.358519c-9.860741 0-17.92-8.059259-17.92-17.92V699.922963c0-9.860741 8.059259-17.92 17.92-17.92h215.04c9.860741 0 17.92 8.059259 17.92 17.92v161.28z m0 0" fill="#666666" p-id="5387"></path></svg>