<?xml version="1.0" standalone="no"?><!DOCTYPE svg PUBLIC "-//W3C//DTD SVG 1.1//EN" "http://www.w3.org/Graphics/SVG/1.1/DTD/svg11.dtd"><svg t="1590477264095" class="icon" viewBox="0 0 1820 1024" version="1.1" xmlns="http://www.w3.org/2000/svg" p-id="5655" xmlns:xlink="http://www.w3.org/1999/xlink" width="355.46875" height="200"><defs><style type="text/css"></style></defs><path d="M586.903704 618.287407c26.453333 0 46.648889 20.195556 46.648889 46.648889 0 26.453333-20.195556 46.648889-46.648889 46.648889s-46.648889-20.195556-46.648889-46.648889c0-26.453333 20.195556-46.648889 46.648889-46.648889z m0 15.54963c-17.066667 0-31.099259 14.032593-31.09926 31.099259 0 17.066667 14.032593 31.099259 31.09926 31.09926 17.066667 0 31.099259-14.032593 31.099259-31.09926 0-17.066667-13.937778-31.099259-31.099259-31.099259z m0 87.134815c46.648889 0 93.297778 21.807407 93.297777 54.423704v23.324444c0 4.645926-3.128889 7.774815-7.774814 7.774815H501.380741c-4.645926-1.517037-7.774815-4.645926-7.774815-9.291852v-23.324444c0-31.194074 46.648889-52.906667 93.297778-52.906667z m77.748148 52.811852c0-20.195556-34.228148-38.874074-77.748148-38.874074s-77.748148 18.678519-77.748148 38.874074v15.549629h155.496296v-15.549629z m0 0" fill="#666666" p-id="5656"></path></svg>