<?xml version="1.0" standalone="no"?><!DOCTYPE svg PUBLIC "-//W3C//DTD SVG 1.1//EN" "http://www.w3.org/Graphics/SVG/1.1/DTD/svg11.dtd"><svg t="1590475911546" class="icon" viewBox="0 0 1024 1024" version="1.1" xmlns="http://www.w3.org/2000/svg" p-id="2085" xmlns:xlink="http://www.w3.org/1999/xlink" width="200" height="200"><defs><style type="text/css"></style></defs><path d="M511.999488 140.591015c115.202789 0 212.235752 98.829889 212.235753 212.235752v70.745251H299.763736v-70.745251c0-113.405863 97.014544-212.235752 212.235752-212.235752m0-35.364439c-140.817166 0-247.609401 108.99439-247.6094 247.600191v106.117877h495.217778V352.826767c0.001023-138.605801-106.791212-247.600191-247.608378-247.600191z m300.667828 353.718068v318.354651c0 51.970652-53.318346 106.117876-106.117877 106.117876H317.449537c-52.79953 0-106.117876-54.147224-106.117876-106.117876V458.944644h601.335655m35.372625-35.371603H175.959036l0.017396 353.450985c0 78.750575 64.009849 141.749398 144.011928 141.749398h384.021233c80.003102 0 144.011928-62.998823 144.011928-141.749398V420.23911l0.01842 3.333931zM519.995603 588.017324c12.815887 0 24.007787 11.018961 24.007787 23.619954v94.502327c0 12.599969-11.1919 23.62814-24.007787 23.62814-12.798491 0-24.007787-11.028171-24.007787-23.62814v-94.502327c0-12.600993 11.209296-23.619954 24.007787-23.619954z" p-id="2086"></path></svg>